<svg xmlns="http://www.w3.org/2000/svg" xmlns:xlink="http://www.w3.org/1999/xlink" width="600" height="400" viewBox="0 0 2400 1600">
<defs>
  <clipPath id="clip510">
    <rect x="0" y="0" width="2400" height="1600"></rect>
  </clipPath>
</defs>
<path clip-path="url(#clip510)" d="M0 1600 L2400 1600 L2400 0 L0 0  Z" fill="#ffffff" fill-rule="evenodd" fill-opacity="1"></path>
<defs>
  <clipPath id="clip511">
    <rect x="480" y="0" width="1681" height="1600"></rect>
  </clipPath>
</defs>
<defs>
  <clipPath id="clip512">
    <rect x="112" y="47" width="2242" height="1440"></rect>
  </clipPath>
</defs>
<path clip-path="url(#clip512)" d="M1811.14 1675.88 L1811.14 1295.86 L1891.15 1105.85 L2029.71 1215.55 L2029.71 1595.57 L1949.71 1785.58 L1811.14 1675.88  Z" fill="#ffffff" fill-rule="evenodd" fill-opacity="1"></path>
<polyline clip-path="url(#clip512)" style="stroke:#000000; stroke-linecap:round; stroke-linejoin:round; stroke-width:2; stroke-opacity:0.1; fill:none" points="726.052,1220.32 1141.51,860.524 1141.51,140.922 "></polyline>
<polyline clip-path="url(#clip512)" style="stroke:#000000; stroke-linecap:round; stroke-linejoin:round; stroke-width:2; stroke-opacity:0.1; fill:none" points="899.263,1270.33 1314.73,910.526 1314.73,190.924 "></polyline>
<polyline clip-path="url(#clip512)" style="stroke:#000000; stroke-linecap:round; stroke-linejoin:round; stroke-width:2; stroke-opacity:0.1; fill:none" points="1072.47,1320.33 1487.94,960.528 1487.94,240.926 "></polyline>
<polyline clip-path="url(#clip512)" style="stroke:#000000; stroke-linecap:round; stroke-linejoin:round; stroke-width:2; stroke-opacity:0.1; fill:none" points="1245.69,1370.33 1661.15,1010.53 1661.15,290.928 "></polyline>
<polyline clip-path="url(#clip510)" style="stroke:#000000; stroke-linecap:round; stroke-linejoin:round; stroke-width:4; stroke-opacity:1; fill:none" points="664.934,1202.68 1384.54,1410.41 "></polyline>
<polyline clip-path="url(#clip510)" style="stroke:#000000; stroke-linecap:round; stroke-linejoin:round; stroke-width:4; stroke-opacity:1; fill:none" points="726.052,1220.32 731.037,1216.01 "></polyline>
<polyline clip-path="url(#clip510)" style="stroke:#000000; stroke-linecap:round; stroke-linejoin:round; stroke-width:4; stroke-opacity:1; fill:none" points="899.263,1270.33 904.249,1266.01 "></polyline>
<polyline clip-path="url(#clip510)" style="stroke:#000000; stroke-linecap:round; stroke-linejoin:round; stroke-width:4; stroke-opacity:1; fill:none" points="1072.47,1320.33 1077.46,1316.01 "></polyline>
<polyline clip-path="url(#clip510)" style="stroke:#000000; stroke-linecap:round; stroke-linejoin:round; stroke-width:4; stroke-opacity:1; fill:none" points="1245.69,1370.33 1250.67,1366.01 "></polyline>
<path clip-path="url(#clip510)" d="M602.227 1243.36 L631.903 1243.36 L631.903 1247.29 L602.227 1247.29 L602.227 1243.36 Z" fill="#000000" fill-rule="nonzero" fill-opacity="1"></path><path clip-path="url(#clip510)" d="M640.815 1225.63 L663.037 1225.63 L663.037 1227.62 L650.49 1260.19 L645.606 1260.19 L657.412 1229.56 L640.815 1229.56 L640.815 1225.63 Z" fill="#000000" fill-rule="nonzero" fill-opacity="1"></path><path clip-path="url(#clip510)" d="M672.157 1254.31 L677.041 1254.31 L677.041 1260.19 L672.157 1260.19 L672.157 1254.31 Z" fill="#000000" fill-rule="nonzero" fill-opacity="1"></path><path clip-path="url(#clip510)" d="M687.273 1225.63 L705.629 1225.63 L705.629 1229.56 L691.555 1229.56 L691.555 1238.03 Q692.574 1237.69 693.592 1237.52 Q694.611 1237.34 695.629 1237.34 Q701.416 1237.34 704.796 1240.51 Q708.175 1243.68 708.175 1249.1 Q708.175 1254.68 704.703 1257.78 Q701.231 1260.86 694.912 1260.86 Q692.736 1260.86 690.467 1260.49 Q688.222 1260.12 685.814 1259.38 L685.814 1254.68 Q687.898 1255.81 690.12 1256.37 Q692.342 1256.92 694.819 1256.92 Q698.824 1256.92 701.161 1254.81 Q703.499 1252.71 703.499 1249.1 Q703.499 1245.49 701.161 1243.38 Q698.824 1241.27 694.819 1241.27 Q692.944 1241.27 691.069 1241.69 Q689.217 1242.11 687.273 1242.99 L687.273 1225.63 Z" fill="#000000" fill-rule="nonzero" fill-opacity="1"></path><path clip-path="url(#clip510)" d="M774.443 1293.36 L804.119 1293.36 L804.119 1297.29 L774.443 1297.29 L774.443 1293.36 Z" fill="#000000" fill-rule="nonzero" fill-opacity="1"></path><path clip-path="url(#clip510)" d="M814.258 1275.63 L832.614 1275.63 L832.614 1279.56 L818.54 1279.56 L818.54 1288.03 Q819.559 1287.69 820.577 1287.53 Q821.596 1287.34 822.614 1287.34 Q828.401 1287.34 831.781 1290.51 Q835.16 1293.68 835.16 1299.1 Q835.16 1304.68 831.688 1307.78 Q828.216 1310.86 821.897 1310.86 Q819.721 1310.86 817.452 1310.49 Q815.207 1310.12 812.799 1309.38 L812.799 1304.68 Q814.883 1305.81 817.105 1306.37 Q819.327 1306.92 821.804 1306.92 Q825.809 1306.92 828.146 1304.82 Q830.484 1302.71 830.484 1299.1 Q830.484 1295.49 828.146 1293.38 Q825.809 1291.28 821.804 1291.28 Q819.929 1291.28 818.054 1291.69 Q816.202 1292.11 814.258 1292.99 L814.258 1275.63 Z" fill="#000000" fill-rule="nonzero" fill-opacity="1"></path><path clip-path="url(#clip510)" d="M844.373 1304.31 L849.257 1304.31 L849.257 1310.19 L844.373 1310.19 L844.373 1304.31 Z" fill="#000000" fill-rule="nonzero" fill-opacity="1"></path><path clip-path="url(#clip510)" d="M869.443 1278.71 Q865.831 1278.71 864.003 1282.27 Q862.197 1285.81 862.197 1292.94 Q862.197 1300.05 864.003 1303.61 Q865.831 1307.15 869.443 1307.15 Q873.077 1307.15 874.882 1303.61 Q876.711 1300.05 876.711 1292.94 Q876.711 1285.81 874.882 1282.27 Q873.077 1278.71 869.443 1278.71 M869.443 1275 Q875.253 1275 878.308 1279.61 Q881.387 1284.19 881.387 1292.94 Q881.387 1301.67 878.308 1306.28 Q875.253 1310.86 869.443 1310.86 Q863.632 1310.86 860.554 1306.28 Q857.498 1301.67 857.498 1292.94 Q857.498 1284.19 860.554 1279.61 Q863.632 1275 869.443 1275 Z" fill="#000000" fill-rule="nonzero" fill-opacity="1"></path><path clip-path="url(#clip510)" d="M948.65 1343.36 L978.326 1343.36 L978.326 1347.3 L948.65 1347.3 L948.65 1343.36 Z" fill="#000000" fill-rule="nonzero" fill-opacity="1"></path><path clip-path="url(#clip510)" d="M992.446 1356.25 L1008.77 1356.25 L1008.77 1360.19 L986.821 1360.19 L986.821 1356.25 Q989.483 1353.5 994.066 1348.87 Q998.673 1344.22 999.853 1342.87 Q1002.1 1340.35 1002.98 1338.62 Q1003.88 1336.86 1003.88 1335.17 Q1003.88 1332.41 1001.94 1330.68 Q1000.02 1328.94 996.914 1328.94 Q994.715 1328.94 992.261 1329.7 Q989.83 1330.47 987.053 1332.02 L987.053 1327.3 Q989.877 1326.16 992.33 1325.58 Q994.784 1325 996.821 1325 Q1002.19 1325 1005.39 1327.69 Q1008.58 1330.37 1008.58 1334.87 Q1008.58 1336.99 1007.77 1338.92 Q1006.98 1340.81 1004.88 1343.41 Q1004.3 1344.08 1001.2 1347.3 Q998.094 1350.49 992.446 1356.25 Z" fill="#000000" fill-rule="nonzero" fill-opacity="1"></path><path clip-path="url(#clip510)" d="M1018.58 1354.31 L1023.46 1354.31 L1023.46 1360.19 L1018.58 1360.19 L1018.58 1354.31 Z" fill="#000000" fill-rule="nonzero" fill-opacity="1"></path><path clip-path="url(#clip510)" d="M1033.7 1325.63 L1052.05 1325.63 L1052.05 1329.56 L1037.98 1329.56 L1037.98 1338.04 Q1039 1337.69 1040.02 1337.53 Q1041.03 1337.34 1042.05 1337.34 Q1047.84 1337.34 1051.22 1340.51 Q1054.6 1343.68 1054.6 1349.1 Q1054.6 1354.68 1051.13 1357.78 Q1047.65 1360.86 1041.33 1360.86 Q1039.16 1360.86 1036.89 1360.49 Q1034.64 1360.12 1032.24 1359.38 L1032.24 1354.68 Q1034.32 1355.81 1036.54 1356.37 Q1038.77 1356.93 1041.24 1356.93 Q1045.25 1356.93 1047.58 1354.82 Q1049.92 1352.71 1049.92 1349.1 Q1049.92 1345.49 1047.58 1343.38 Q1045.25 1341.28 1041.24 1341.28 Q1039.37 1341.28 1037.49 1341.69 Q1035.64 1342.11 1033.7 1342.99 L1033.7 1325.63 Z" fill="#000000" fill-rule="nonzero" fill-opacity="1"></path><path clip-path="url(#clip510)" d="M1170.63 1378.71 Q1167.02 1378.71 1165.19 1382.27 Q1163.39 1385.82 1163.39 1392.95 Q1163.39 1400.05 1165.19 1403.62 Q1167.02 1407.16 1170.63 1407.16 Q1174.27 1407.16 1176.07 1403.62 Q1177.9 1400.05 1177.9 1392.95 Q1177.9 1385.82 1176.07 1382.27 Q1174.27 1378.71 1170.63 1378.71 M1170.63 1375.01 Q1176.44 1375.01 1179.5 1379.61 Q1182.58 1384.2 1182.58 1392.95 Q1182.58 1401.67 1179.5 1406.28 Q1176.44 1410.86 1170.63 1410.86 Q1164.82 1410.86 1161.75 1406.28 Q1158.69 1401.67 1158.69 1392.95 Q1158.69 1384.2 1161.75 1379.61 Q1164.82 1375.01 1170.63 1375.01 Z" fill="#000000" fill-rule="nonzero" fill-opacity="1"></path><path clip-path="url(#clip510)" d="M1190.8 1404.31 L1195.68 1404.31 L1195.68 1410.19 L1190.8 1410.19 L1190.8 1404.31 Z" fill="#000000" fill-rule="nonzero" fill-opacity="1"></path><path clip-path="url(#clip510)" d="M1215.87 1378.71 Q1212.25 1378.71 1210.43 1382.27 Q1208.62 1385.82 1208.62 1392.95 Q1208.62 1400.05 1210.43 1403.62 Q1212.25 1407.16 1215.87 1407.16 Q1219.5 1407.16 1221.31 1403.62 Q1223.13 1400.05 1223.13 1392.95 Q1223.13 1385.82 1221.31 1382.27 Q1219.5 1378.71 1215.87 1378.71 M1215.87 1375.01 Q1221.68 1375.01 1224.73 1379.61 Q1227.81 1384.2 1227.81 1392.95 Q1227.81 1401.67 1224.73 1406.28 Q1221.68 1410.86 1215.87 1410.86 Q1210.06 1410.86 1206.98 1406.28 Q1203.92 1401.67 1203.92 1392.95 Q1203.92 1384.2 1206.98 1379.61 Q1210.06 1375.01 1215.87 1375.01 Z" fill="#000000" fill-rule="nonzero" fill-opacity="1"></path><polyline clip-path="url(#clip512)" style="stroke:#000000; stroke-linecap:round; stroke-linejoin:round; stroke-width:2; stroke-opacity:0.1; fill:none" points="1396.29,1400.23 676.693,1192.5 676.693,472.897 "></polyline>
<polyline clip-path="url(#clip512)" style="stroke:#000000; stroke-linecap:round; stroke-linejoin:round; stroke-width:2; stroke-opacity:0.1; fill:none" points="1506,1305.23 786.395,1097.49 786.395,377.892 "></polyline>
<polyline clip-path="url(#clip512)" style="stroke:#000000; stroke-linecap:round; stroke-linejoin:round; stroke-width:2; stroke-opacity:0.1; fill:none" points="1615.7,1210.22 896.096,1002.49 896.096,282.888 "></polyline>
<polyline clip-path="url(#clip512)" style="stroke:#000000; stroke-linecap:round; stroke-linejoin:round; stroke-width:2; stroke-opacity:0.1; fill:none" points="1725.4,1115.22 1005.8,907.485 1005.8,187.883 "></polyline>
<polyline clip-path="url(#clip510)" style="stroke:#000000; stroke-linecap:round; stroke-linejoin:round; stroke-width:4; stroke-opacity:1; fill:none" points="1384.54,1410.41 1800,1050.61 "></polyline>
<polyline clip-path="url(#clip510)" style="stroke:#000000; stroke-linecap:round; stroke-linejoin:round; stroke-width:4; stroke-opacity:1; fill:none" points="1396.29,1400.23 1387.66,1397.74 "></polyline>
<polyline clip-path="url(#clip510)" style="stroke:#000000; stroke-linecap:round; stroke-linejoin:round; stroke-width:4; stroke-opacity:1; fill:none" points="1506,1305.23 1497.36,1302.73 "></polyline>
<polyline clip-path="url(#clip510)" style="stroke:#000000; stroke-linecap:round; stroke-linejoin:round; stroke-width:4; stroke-opacity:1; fill:none" points="1615.7,1210.22 1607.06,1207.73 "></polyline>
<polyline clip-path="url(#clip510)" style="stroke:#000000; stroke-linecap:round; stroke-linejoin:round; stroke-width:4; stroke-opacity:1; fill:none" points="1725.4,1115.22 1716.76,1112.72 "></polyline>
<path clip-path="url(#clip510)" d="M1434.78 1397.2 Q1431.17 1397.2 1429.34 1400.77 Q1427.54 1404.31 1427.54 1411.44 Q1427.54 1418.55 1429.34 1422.11 Q1431.17 1425.65 1434.78 1425.65 Q1438.42 1425.65 1440.22 1422.11 Q1442.05 1418.55 1442.05 1411.44 Q1442.05 1404.31 1440.22 1400.77 Q1438.42 1397.2 1434.78 1397.2 M1434.78 1393.5 Q1440.59 1393.5 1443.65 1398.11 Q1446.73 1402.69 1446.73 1411.44 Q1446.73 1420.17 1443.65 1424.77 Q1440.59 1429.36 1434.78 1429.36 Q1428.97 1429.36 1425.89 1424.77 Q1422.84 1420.17 1422.84 1411.44 Q1422.84 1402.69 1425.89 1398.11 Q1428.97 1393.5 1434.78 1393.5 Z" fill="#000000" fill-rule="nonzero" fill-opacity="1"></path><path clip-path="url(#clip510)" d="M1533.21 1329.75 L1540.85 1329.75 L1540.85 1303.38 L1532.54 1305.05 L1532.54 1300.79 L1540.8 1299.12 L1545.48 1299.12 L1545.48 1329.75 L1553.12 1329.75 L1553.12 1333.68 L1533.21 1333.68 L1533.21 1329.75 Z" fill="#000000" fill-rule="nonzero" fill-opacity="1"></path><path clip-path="url(#clip510)" d="M1647.87 1234.74 L1664.19 1234.74 L1664.19 1238.68 L1642.24 1238.68 L1642.24 1234.74 Q1644.9 1231.99 1649.49 1227.36 Q1654.09 1222.7 1655.27 1221.36 Q1657.52 1218.84 1658.4 1217.1 Q1659.3 1215.34 1659.3 1213.65 Q1659.3 1210.9 1657.36 1209.16 Q1655.44 1207.43 1652.33 1207.43 Q1650.13 1207.43 1647.68 1208.19 Q1645.25 1208.95 1642.47 1210.51 L1642.47 1205.78 Q1645.3 1204.65 1647.75 1204.07 Q1650.2 1203.49 1652.24 1203.49 Q1657.61 1203.49 1660.81 1206.18 Q1664 1208.86 1664 1213.35 Q1664 1215.48 1663.19 1217.4 Q1662.4 1219.3 1660.3 1221.89 Q1659.72 1222.57 1656.62 1225.78 Q1653.51 1228.98 1647.87 1234.74 Z" fill="#000000" fill-rule="nonzero" fill-opacity="1"></path><path clip-path="url(#clip510)" d="M1767.57 1125.04 Q1770.92 1125.76 1772.8 1128.02 Q1774.7 1130.29 1774.7 1133.63 Q1774.7 1138.74 1771.18 1141.54 Q1767.66 1144.34 1761.18 1144.34 Q1759 1144.34 1756.69 1143.9 Q1754.4 1143.49 1751.94 1142.63 L1751.94 1138.12 Q1753.89 1139.25 1756.2 1139.83 Q1758.52 1140.41 1761.04 1140.41 Q1765.44 1140.41 1767.73 1138.67 Q1770.04 1136.94 1770.04 1133.63 Q1770.04 1130.57 1767.89 1128.86 Q1765.76 1127.12 1761.94 1127.12 L1757.92 1127.12 L1757.92 1123.28 L1762.13 1123.28 Q1765.58 1123.28 1767.41 1121.91 Q1769.23 1120.52 1769.23 1117.93 Q1769.23 1115.27 1767.34 1113.86 Q1765.46 1112.42 1761.94 1112.42 Q1760.02 1112.42 1757.82 1112.84 Q1755.62 1113.26 1752.98 1114.14 L1752.98 1109.97 Q1755.65 1109.23 1757.96 1108.86 Q1760.3 1108.49 1762.36 1108.49 Q1767.68 1108.49 1770.79 1110.92 Q1773.89 1113.33 1773.89 1117.45 Q1773.89 1120.32 1772.24 1122.31 Q1770.6 1124.27 1767.57 1125.04 Z" fill="#000000" fill-rule="nonzero" fill-opacity="1"></path><polyline clip-path="url(#clip512)" style="stroke:#000000; stroke-linecap:round; stroke-linejoin:round; stroke-width:2; stroke-opacity:0.1; fill:none" points="664.934,1173.7 1080.4,813.896 1800,1021.63 "></polyline>
<polyline clip-path="url(#clip512)" style="stroke:#000000; stroke-linecap:round; stroke-linejoin:round; stroke-width:2; stroke-opacity:0.1; fill:none" points="664.934,990.067 1080.4,630.266 1800,837.997 "></polyline>
<polyline clip-path="url(#clip512)" style="stroke:#000000; stroke-linecap:round; stroke-linejoin:round; stroke-width:2; stroke-opacity:0.1; fill:none" points="664.934,806.436 1080.4,446.635 1800,654.367 "></polyline>
<polyline clip-path="url(#clip512)" style="stroke:#000000; stroke-linecap:round; stroke-linejoin:round; stroke-width:2; stroke-opacity:0.1; fill:none" points="664.934,622.806 1080.4,263.005 1800,470.736 "></polyline>
<polyline clip-path="url(#clip510)" style="stroke:#000000; stroke-linecap:round; stroke-linejoin:round; stroke-width:4; stroke-opacity:1; fill:none" points="664.934,1202.68 664.934,483.08 "></polyline>
<polyline clip-path="url(#clip510)" style="stroke:#000000; stroke-linecap:round; stroke-linejoin:round; stroke-width:4; stroke-opacity:1; fill:none" points="664.934,1173.7 669.92,1169.38 "></polyline>
<polyline clip-path="url(#clip510)" style="stroke:#000000; stroke-linecap:round; stroke-linejoin:round; stroke-width:4; stroke-opacity:1; fill:none" points="664.934,990.067 669.92,985.749 "></polyline>
<polyline clip-path="url(#clip510)" style="stroke:#000000; stroke-linecap:round; stroke-linejoin:round; stroke-width:4; stroke-opacity:1; fill:none" points="664.934,806.436 669.92,802.119 "></polyline>
<polyline clip-path="url(#clip510)" style="stroke:#000000; stroke-linecap:round; stroke-linejoin:round; stroke-width:4; stroke-opacity:1; fill:none" points="664.934,622.806 669.92,618.488 "></polyline>
<path clip-path="url(#clip510)" d="M624.19 1159.5 Q620.579 1159.5 618.75 1163.06 Q616.945 1166.6 616.945 1173.73 Q616.945 1180.84 618.75 1184.4 Q620.579 1187.94 624.19 1187.94 Q627.824 1187.94 629.63 1184.4 Q631.459 1180.84 631.459 1173.73 Q631.459 1166.6 629.63 1163.06 Q627.824 1159.5 624.19 1159.5 M624.19 1155.79 Q630 1155.79 633.056 1160.4 Q636.134 1164.98 636.134 1173.73 Q636.134 1182.46 633.056 1187.07 Q630 1191.65 624.19 1191.65 Q618.38 1191.65 615.301 1187.07 Q612.246 1182.46 612.246 1173.73 Q612.246 1164.98 615.301 1160.4 Q618.38 1155.79 624.19 1155.79 Z" fill="#000000" fill-rule="nonzero" fill-opacity="1"></path><path clip-path="url(#clip510)" d="M619.815 1003.41 L636.134 1003.41 L636.134 1007.35 L614.19 1007.35 L614.19 1003.41 Q616.852 1000.66 621.435 996.027 Q626.042 991.375 627.222 990.032 Q629.468 987.509 630.347 985.773 Q631.25 984.014 631.25 982.324 Q631.25 979.569 629.306 977.833 Q627.384 976.097 624.283 976.097 Q622.084 976.097 619.63 976.861 Q617.199 977.625 614.422 979.176 L614.422 974.454 Q617.246 973.319 619.699 972.741 Q622.153 972.162 624.19 972.162 Q629.56 972.162 632.755 974.847 Q635.949 977.532 635.949 982.023 Q635.949 984.153 635.139 986.074 Q634.352 987.972 632.246 990.565 Q631.667 991.236 628.565 994.453 Q625.463 997.648 619.815 1003.41 Z" fill="#000000" fill-rule="nonzero" fill-opacity="1"></path><path clip-path="url(#clip510)" d="M626.551 793.23 L614.746 811.679 L626.551 811.679 L626.551 793.23 M625.324 789.156 L631.204 789.156 L631.204 811.679 L636.134 811.679 L636.134 815.568 L631.204 815.568 L631.204 823.716 L626.551 823.716 L626.551 815.568 L610.949 815.568 L610.949 811.054 L625.324 789.156 Z" fill="#000000" fill-rule="nonzero" fill-opacity="1"></path><path clip-path="url(#clip510)" d="M624.607 620.942 Q621.459 620.942 619.607 623.095 Q617.778 625.248 617.778 628.998 Q617.778 632.725 619.607 634.901 Q621.459 637.053 624.607 637.053 Q627.755 637.053 629.584 634.901 Q631.435 632.725 631.435 628.998 Q631.435 625.248 629.584 623.095 Q627.755 620.942 624.607 620.942 M633.889 606.29 L633.889 610.549 Q632.13 609.716 630.324 609.276 Q628.542 608.836 626.783 608.836 Q622.153 608.836 619.699 611.961 Q617.269 615.086 616.922 621.405 Q618.287 619.392 620.347 618.327 Q622.408 617.239 624.884 617.239 Q630.093 617.239 633.102 620.41 Q636.134 623.558 636.134 628.998 Q636.134 634.322 632.986 637.54 Q629.838 640.757 624.607 640.757 Q618.611 640.757 615.44 636.174 Q612.269 631.567 612.269 622.841 Q612.269 614.646 616.158 609.785 Q620.047 604.901 626.597 604.901 Q628.357 604.901 630.139 605.248 Q631.945 605.595 633.889 606.29 Z" fill="#000000" fill-rule="nonzero" fill-opacity="1"></path><polyline clip-path="url(#clip512)" style="stroke:#009af9; stroke-linecap:round; stroke-linejoin:round; stroke-width:4; stroke-opacity:1; fill:none" points="966.452,272.895 976.033,271.334 990.063,279.566 990.654,284.807 999.203,294.227 1007.99,305.371 1019.37,321.279 1028.75,338.661 1035.35,356.277 1044.9,371.649 1057.84,388.807 1070.55,406.186 1083.91,423.489 1098.02,442.508 1111.69,462.372 1137.76,503.634 1139.15,506.191 1153.23,529.395 1152.81,529.822 1165.96,553.247 1186.34,577.332 1201.61,601.44 1215.93,625.684 1229.31,649.998 1243.31,672.644 1260.12,693.626 1278,712.916 1296.91,730.904 1320.5,743.517 1343.73,755.34 1346.16,753.745 1371.25,762.056 1397.04,767.375 1422.6,771.056 1448.96,772.554 1476.87,773.826 1504.85,774.165 1531.33,775.844 1556.36,777.778 1639.57,791.283 1670.16,800.743 1691.57,809.106 1700.54,813.714 1708.44,819.045 1715.58,822.686 1726.99,831.174 1733.23,844.266 1735.51,873.857 1730.31,891.903 1726.25,901.67 1721.3,911.852 1715.55,922.392 1701.92,944.332 1694.17,955.635 1685.87,967.098 1677.41,978.9 1669.43,989.766 1661.01,1000.72 1652.21,1011.74 1643.07,1022.77 1623.95,1044.79 1593.78,1077.3 1541.85,1128.74 1443.02,1215.6 1259.25,1330.71 1257.44,1331.16 "></polyline>
<path clip-path="url(#clip510)" d="M186.863 1438.47 L877.307 1438.47 L877.307 1334.79 L186.863 1334.79  Z" fill="#ffffff" fill-rule="evenodd" fill-opacity="1"></path>
<polyline clip-path="url(#clip510)" style="stroke:#000000; stroke-linecap:round; stroke-linejoin:round; stroke-width:4; stroke-opacity:1; fill:none" points="186.863,1438.47 877.307,1438.47 877.307,1334.79 186.863,1334.79 186.863,1438.47 "></polyline>
<polyline clip-path="url(#clip510)" style="stroke:#009af9; stroke-linecap:round; stroke-linejoin:round; stroke-width:4; stroke-opacity:1; fill:none" points="211.758,1386.63 361.13,1386.63 "></polyline>
<path clip-path="url(#clip510)" d="M401.211 1381.97 Q400.493 1381.55 399.637 1381.37 Q398.803 1381.16 397.785 1381.16 Q394.174 1381.16 392.229 1383.52 Q390.308 1385.86 390.308 1390.26 L390.308 1403.91 L386.026 1403.91 L386.026 1377.99 L390.308 1377.99 L390.308 1382.02 Q391.651 1379.66 393.803 1378.52 Q395.956 1377.36 399.035 1377.36 Q399.475 1377.36 400.007 1377.43 Q400.539 1377.48 401.188 1377.6 L401.211 1381.97 Z" fill="#000000" fill-rule="nonzero" fill-opacity="1"></path><path clip-path="url(#clip510)" d="M426.813 1389.89 L426.813 1391.97 L407.229 1391.97 Q407.507 1396.37 409.868 1398.68 Q412.252 1400.97 416.488 1400.97 Q418.942 1400.97 421.234 1400.37 Q423.549 1399.77 425.817 1398.57 L425.817 1402.59 Q423.525 1403.57 421.118 1404.08 Q418.711 1404.59 416.234 1404.59 Q410.03 1404.59 406.396 1400.97 Q402.785 1397.36 402.785 1391.21 Q402.785 1384.84 406.211 1381.11 Q409.66 1377.36 415.493 1377.36 Q420.725 1377.36 423.757 1380.74 Q426.813 1384.1 426.813 1389.89 M422.553 1388.64 Q422.507 1385.14 420.586 1383.06 Q418.688 1380.97 415.539 1380.97 Q411.975 1380.97 409.822 1382.99 Q407.692 1385 407.368 1388.66 L422.553 1388.64 Z" fill="#000000" fill-rule="nonzero" fill-opacity="1"></path><path clip-path="url(#clip510)" d="M446.928 1367.9 L446.928 1371.44 L442.854 1371.44 Q440.562 1371.44 439.66 1372.36 Q438.78 1373.29 438.78 1375.7 L438.78 1377.99 L445.794 1377.99 L445.794 1381.3 L438.78 1381.3 L438.78 1403.91 L434.498 1403.91 L434.498 1381.3 L430.424 1381.3 L430.424 1377.99 L434.498 1377.99 L434.498 1376.18 Q434.498 1371.85 436.512 1369.89 Q438.525 1367.9 442.9 1367.9 L446.928 1367.9 Z" fill="#000000" fill-rule="nonzero" fill-opacity="1"></path><path clip-path="url(#clip510)" d="M472.669 1389.89 L472.669 1391.97 L453.086 1391.97 Q453.363 1396.37 455.724 1398.68 Q458.109 1400.97 462.345 1400.97 Q464.798 1400.97 467.09 1400.37 Q469.405 1399.77 471.673 1398.57 L471.673 1402.59 Q469.382 1403.57 466.974 1404.08 Q464.567 1404.59 462.09 1404.59 Q455.886 1404.59 452.252 1400.97 Q448.641 1397.36 448.641 1391.21 Q448.641 1384.84 452.067 1381.11 Q455.516 1377.36 461.349 1377.36 Q466.581 1377.36 469.613 1380.74 Q472.669 1384.1 472.669 1389.89 M468.41 1388.64 Q468.363 1385.14 466.442 1383.06 Q464.544 1380.97 461.396 1380.97 Q457.831 1380.97 455.678 1382.99 Q453.548 1385 453.224 1388.66 L468.41 1388.64 Z" fill="#000000" fill-rule="nonzero" fill-opacity="1"></path><path clip-path="url(#clip510)" d="M494.683 1381.97 Q493.965 1381.55 493.108 1381.37 Q492.275 1381.16 491.257 1381.16 Q487.646 1381.16 485.701 1383.52 Q483.78 1385.86 483.78 1390.26 L483.78 1403.91 L479.497 1403.91 L479.497 1377.99 L483.78 1377.99 L483.78 1382.02 Q485.122 1379.66 487.275 1378.52 Q489.428 1377.36 492.507 1377.36 Q492.946 1377.36 493.479 1377.43 Q494.011 1377.48 494.659 1377.6 L494.683 1381.97 Z" fill="#000000" fill-rule="nonzero" fill-opacity="1"></path><path clip-path="url(#clip510)" d="M520.284 1389.89 L520.284 1391.97 L500.701 1391.97 Q500.979 1396.37 503.34 1398.68 Q505.724 1400.97 509.96 1400.97 Q512.414 1400.97 514.706 1400.37 Q517.02 1399.77 519.289 1398.57 L519.289 1402.59 Q516.997 1403.57 514.59 1404.08 Q512.182 1404.59 509.706 1404.59 Q503.502 1404.59 499.868 1400.97 Q496.257 1397.36 496.257 1391.21 Q496.257 1384.84 499.682 1381.11 Q503.132 1377.36 508.965 1377.36 Q514.196 1377.36 517.229 1380.74 Q520.284 1384.1 520.284 1389.89 M516.025 1388.64 Q515.979 1385.14 514.057 1383.06 Q512.159 1380.97 509.011 1380.97 Q505.446 1380.97 503.294 1382.99 Q501.164 1385 500.84 1388.66 L516.025 1388.64 Z" fill="#000000" fill-rule="nonzero" fill-opacity="1"></path><path clip-path="url(#clip510)" d="M548.826 1388.27 L548.826 1403.91 L544.567 1403.91 L544.567 1388.41 Q544.567 1384.72 543.131 1382.9 Q541.696 1381.07 538.826 1381.07 Q535.377 1381.07 533.386 1383.27 Q531.395 1385.47 531.395 1389.26 L531.395 1403.91 L527.113 1403.91 L527.113 1377.99 L531.395 1377.99 L531.395 1382.02 Q532.923 1379.68 534.983 1378.52 Q537.067 1377.36 539.775 1377.36 Q544.242 1377.36 546.534 1380.14 Q548.826 1382.9 548.826 1388.27 Z" fill="#000000" fill-rule="nonzero" fill-opacity="1"></path><path clip-path="url(#clip510)" d="M575.978 1378.98 L575.978 1382.97 Q574.173 1381.97 572.344 1381.48 Q570.539 1380.97 568.687 1380.97 Q564.543 1380.97 562.252 1383.61 Q559.96 1386.23 559.96 1390.97 Q559.96 1395.72 562.252 1398.36 Q564.543 1400.97 568.687 1400.97 Q570.539 1400.97 572.344 1400.49 Q574.173 1399.98 575.978 1398.98 L575.978 1402.92 Q574.196 1403.75 572.275 1404.17 Q570.377 1404.59 568.224 1404.59 Q562.367 1404.59 558.918 1400.91 Q555.469 1397.22 555.469 1390.97 Q555.469 1384.63 558.941 1381 Q562.437 1377.36 568.502 1377.36 Q570.469 1377.36 572.344 1377.78 Q574.219 1378.17 575.978 1378.98 Z" fill="#000000" fill-rule="nonzero" fill-opacity="1"></path><path clip-path="url(#clip510)" d="M605.562 1389.89 L605.562 1391.97 L585.978 1391.97 Q586.256 1396.37 588.617 1398.68 Q591.001 1400.97 595.238 1400.97 Q597.691 1400.97 599.983 1400.37 Q602.298 1399.77 604.566 1398.57 L604.566 1402.59 Q602.275 1403.57 599.867 1404.08 Q597.46 1404.59 594.983 1404.59 Q588.779 1404.59 585.145 1400.97 Q581.534 1397.36 581.534 1391.21 Q581.534 1384.84 584.96 1381.11 Q588.409 1377.36 594.242 1377.36 Q599.474 1377.36 602.506 1380.74 Q605.562 1384.1 605.562 1389.89 M601.302 1388.64 Q601.256 1385.14 599.335 1383.06 Q597.437 1380.97 594.288 1380.97 Q590.724 1380.97 588.571 1382.99 Q586.441 1385 586.117 1388.66 L601.302 1388.64 Z" fill="#000000" fill-rule="nonzero" fill-opacity="1"></path><path clip-path="url(#clip510)" d="M631.835 1370.63 L631.835 1377.99 L640.608 1377.99 L640.608 1381.3 L631.835 1381.3 L631.835 1395.37 Q631.835 1398.54 632.691 1399.45 Q633.571 1400.35 636.233 1400.35 L640.608 1400.35 L640.608 1403.91 L636.233 1403.91 Q631.302 1403.91 629.427 1402.09 Q627.552 1400.23 627.552 1395.37 L627.552 1381.3 L624.427 1381.3 L624.427 1377.99 L627.552 1377.99 L627.552 1370.63 L631.835 1370.63 Z" fill="#000000" fill-rule="nonzero" fill-opacity="1"></path><path clip-path="url(#clip510)" d="M661.233 1381.97 Q660.515 1381.55 659.658 1381.37 Q658.825 1381.16 657.807 1381.16 Q654.196 1381.16 652.251 1383.52 Q650.33 1385.86 650.33 1390.26 L650.33 1403.91 L646.047 1403.91 L646.047 1377.99 L650.33 1377.99 L650.33 1382.02 Q651.672 1379.66 653.825 1378.52 Q655.978 1377.36 659.057 1377.36 Q659.496 1377.36 660.029 1377.43 Q660.561 1377.48 661.209 1377.6 L661.233 1381.97 Z" fill="#000000" fill-rule="nonzero" fill-opacity="1"></path><path clip-path="url(#clip510)" d="M677.482 1390.88 Q672.32 1390.88 670.33 1392.06 Q668.339 1393.24 668.339 1396.09 Q668.339 1398.36 669.82 1399.7 Q671.325 1401.02 673.895 1401.02 Q677.436 1401.02 679.566 1398.52 Q681.719 1396 681.719 1391.83 L681.719 1390.88 L677.482 1390.88 M685.978 1389.12 L685.978 1403.91 L681.719 1403.91 L681.719 1399.98 Q680.26 1402.34 678.084 1403.47 Q675.908 1404.59 672.76 1404.59 Q668.779 1404.59 666.418 1402.36 Q664.08 1400.12 664.08 1396.37 Q664.08 1391.99 666.996 1389.77 Q669.936 1387.55 675.746 1387.55 L681.719 1387.55 L681.719 1387.13 Q681.719 1384.19 679.774 1382.6 Q677.853 1380.97 674.357 1380.97 Q672.135 1380.97 670.029 1381.51 Q667.922 1382.04 665.978 1383.1 L665.978 1379.17 Q668.316 1378.27 670.515 1377.83 Q672.714 1377.36 674.797 1377.36 Q680.422 1377.36 683.2 1380.28 Q685.978 1383.2 685.978 1389.12 Z" fill="#000000" fill-rule="nonzero" fill-opacity="1"></path><path clip-path="url(#clip510)" d="M694.751 1377.99 L699.01 1377.99 L699.01 1404.38 Q699.01 1409.33 697.112 1411.55 Q695.237 1413.78 691.047 1413.78 L689.427 1413.78 L689.427 1410.16 L690.561 1410.16 Q692.992 1410.16 693.871 1409.03 Q694.751 1407.92 694.751 1404.38 L694.751 1377.99 M694.751 1367.9 L699.01 1367.9 L699.01 1373.29 L694.751 1373.29 L694.751 1367.9 Z" fill="#000000" fill-rule="nonzero" fill-opacity="1"></path><path clip-path="url(#clip510)" d="M730.098 1389.89 L730.098 1391.97 L710.515 1391.97 Q710.792 1396.37 713.154 1398.68 Q715.538 1400.97 719.774 1400.97 Q722.228 1400.97 724.519 1400.37 Q726.834 1399.77 729.103 1398.57 L729.103 1402.59 Q726.811 1403.57 724.404 1404.08 Q721.996 1404.59 719.519 1404.59 Q713.316 1404.59 709.681 1400.97 Q706.07 1397.36 706.07 1391.21 Q706.07 1384.84 709.496 1381.11 Q712.945 1377.36 718.779 1377.36 Q724.01 1377.36 727.042 1380.74 Q730.098 1384.1 730.098 1389.89 M725.839 1388.64 Q725.792 1385.14 723.871 1383.06 Q721.973 1380.97 718.825 1380.97 Q715.26 1380.97 713.107 1382.99 Q710.978 1385 710.654 1388.66 L725.839 1388.64 Z" fill="#000000" fill-rule="nonzero" fill-opacity="1"></path><path clip-path="url(#clip510)" d="M755.746 1378.98 L755.746 1382.97 Q753.94 1381.97 752.112 1381.48 Q750.306 1380.97 748.454 1380.97 Q744.311 1380.97 742.019 1383.61 Q739.727 1386.23 739.727 1390.97 Q739.727 1395.72 742.019 1398.36 Q744.311 1400.97 748.454 1400.97 Q750.306 1400.97 752.112 1400.49 Q753.94 1399.98 755.746 1398.98 L755.746 1402.92 Q753.964 1403.75 752.042 1404.17 Q750.144 1404.59 747.991 1404.59 Q742.135 1404.59 738.686 1400.91 Q735.237 1397.22 735.237 1390.97 Q735.237 1384.63 738.709 1381 Q742.204 1377.36 748.269 1377.36 Q750.237 1377.36 752.112 1377.78 Q753.987 1378.17 755.746 1378.98 Z" fill="#000000" fill-rule="nonzero" fill-opacity="1"></path><path clip-path="url(#clip510)" d="M767.366 1370.63 L767.366 1377.99 L776.139 1377.99 L776.139 1381.3 L767.366 1381.3 L767.366 1395.37 Q767.366 1398.54 768.223 1399.45 Q769.102 1400.35 771.764 1400.35 L776.139 1400.35 L776.139 1403.91 L771.764 1403.91 Q766.834 1403.91 764.959 1402.09 Q763.084 1400.23 763.084 1395.37 L763.084 1381.3 L759.959 1381.3 L759.959 1377.99 L763.084 1377.99 L763.084 1370.63 L767.366 1370.63 Z" fill="#000000" fill-rule="nonzero" fill-opacity="1"></path><path clip-path="url(#clip510)" d="M791.787 1380.97 Q788.361 1380.97 786.371 1383.66 Q784.38 1386.32 784.38 1390.97 Q784.38 1395.63 786.348 1398.31 Q788.338 1400.97 791.787 1400.97 Q795.19 1400.97 797.181 1398.29 Q799.172 1395.6 799.172 1390.97 Q799.172 1386.37 797.181 1383.68 Q795.19 1380.97 791.787 1380.97 M791.787 1377.36 Q797.343 1377.36 800.514 1380.97 Q803.685 1384.59 803.685 1390.97 Q803.685 1397.34 800.514 1400.97 Q797.343 1404.59 791.787 1404.59 Q786.209 1404.59 783.037 1400.97 Q779.889 1397.34 779.889 1390.97 Q779.889 1384.59 783.037 1380.97 Q786.209 1377.36 791.787 1377.36 Z" fill="#000000" fill-rule="nonzero" fill-opacity="1"></path><path clip-path="url(#clip510)" d="M825.769 1381.97 Q825.051 1381.55 824.195 1381.37 Q823.361 1381.16 822.343 1381.16 Q818.732 1381.16 816.787 1383.52 Q814.866 1385.86 814.866 1390.26 L814.866 1403.91 L810.584 1403.91 L810.584 1377.99 L814.866 1377.99 L814.866 1382.02 Q816.209 1379.66 818.361 1378.52 Q820.514 1377.36 823.593 1377.36 Q824.033 1377.36 824.565 1377.43 Q825.097 1377.48 825.746 1377.6 L825.769 1381.97 Z" fill="#000000" fill-rule="nonzero" fill-opacity="1"></path><path clip-path="url(#clip510)" d="M841.023 1406.32 Q839.218 1410.95 837.505 1412.36 Q835.792 1413.78 832.921 1413.78 L829.519 1413.78 L829.519 1410.21 L832.019 1410.21 Q833.778 1410.21 834.75 1409.38 Q835.722 1408.54 836.903 1405.44 L837.667 1403.5 L827.181 1377.99 L831.695 1377.99 L839.796 1398.27 L847.898 1377.99 L852.412 1377.99 L841.023 1406.32 Z" fill="#000000" fill-rule="nonzero" fill-opacity="1"></path></svg>